<svg width="89" height="32" viewBox="0 0 89 32" fill="none" xmlns="http://www.w3.org/2000/svg">
<path d="M45.2656 27.1387C45.2656 26.8633 45.3506 26.6318 45.5205 26.4443C45.6963 26.251 45.9482 26.1543 46.2764 26.1543C46.6045 26.1543 46.8535 26.251 47.0234 26.4443C47.1992 26.6318 47.2871 26.8633 47.2871 27.1387C47.2871 27.4082 47.1992 27.6367 47.0234 27.8242C46.8535 28.0117 46.6045 28.1055 46.2764 28.1055C45.9482 28.1055 45.6963 28.0117 45.5205 27.8242C45.3506 27.6367 45.2656 27.4082 45.2656 27.1387ZM55.5225 25.4775C55.5225 25.2432 55.4697 25.0264 55.3643 24.8271C55.2646 24.6221 55.0566 24.4375 54.7402 24.2734C54.4297 24.1035 53.9609 23.957 53.334 23.834C52.8066 23.7227 52.3291 23.5908 51.9014 23.4385C51.4795 23.2861 51.1191 23.1016 50.8203 22.8848C50.5273 22.668 50.3018 22.4131 50.1436 22.1201C49.9854 21.8271 49.9062 21.4844 49.9062 21.0918C49.9062 20.7168 49.9883 20.3623 50.1523 20.0283C50.3223 19.6943 50.5596 19.3984 50.8643 19.1406C51.1748 18.8828 51.5469 18.6807 51.9805 18.5342C52.4141 18.3877 52.8975 18.3145 53.4307 18.3145C54.1924 18.3145 54.8428 18.4492 55.3818 18.7188C55.9209 18.9883 56.334 19.3486 56.6211 19.7998C56.9082 20.2451 57.0518 20.7402 57.0518 21.2852H55.4258C55.4258 21.0215 55.3467 20.7666 55.1885 20.5205C55.0361 20.2686 54.8105 20.0605 54.5117 19.8965C54.2188 19.7324 53.8584 19.6504 53.4307 19.6504C52.9795 19.6504 52.6133 19.7207 52.332 19.8613C52.0566 19.9961 51.8545 20.1689 51.7256 20.3799C51.6025 20.5908 51.541 20.8135 51.541 21.0479C51.541 21.2236 51.5703 21.3818 51.6289 21.5225C51.6934 21.6572 51.8047 21.7832 51.9629 21.9004C52.1211 22.0117 52.3438 22.1172 52.6309 22.2168C52.918 22.3164 53.2842 22.416 53.7295 22.5156C54.5088 22.6914 55.1504 22.9023 55.6543 23.1484C56.1582 23.3945 56.5332 23.6963 56.7793 24.0537C57.0254 24.4111 57.1484 24.8447 57.1484 25.3545C57.1484 25.7705 57.0605 26.1514 56.8848 26.4971C56.7148 26.8428 56.4658 27.1416 56.1377 27.3936C55.8154 27.6396 55.4287 27.833 54.9775 27.9736C54.5322 28.1084 54.0312 28.1758 53.4746 28.1758C52.6367 28.1758 51.9277 28.0264 51.3477 27.7275C50.7676 27.4287 50.3281 27.042 50.0293 26.5674C49.7305 26.0928 49.5811 25.5918 49.5811 25.0645H51.2158C51.2393 25.5098 51.3682 25.8643 51.6025 26.1279C51.8369 26.3857 52.124 26.5703 52.4639 26.6816C52.8037 26.7871 53.1406 26.8398 53.4746 26.8398C53.9199 26.8398 54.292 26.7812 54.5908 26.6641C54.8955 26.5469 55.127 26.3857 55.2852 26.1807C55.4434 25.9756 55.5225 25.7412 55.5225 25.4775ZM60.9102 14.5V28H59.2842V14.5H60.9102ZM60.5234 22.8848L59.8467 22.8584C59.8525 22.208 59.9492 21.6074 60.1367 21.0566C60.3242 20.5 60.5879 20.0166 60.9277 19.6064C61.2676 19.1963 61.6719 18.8799 62.1406 18.6572C62.6152 18.4287 63.1396 18.3145 63.7139 18.3145C64.1826 18.3145 64.6045 18.3789 64.9795 18.5078C65.3545 18.6309 65.6738 18.8301 65.9375 19.1055C66.207 19.3809 66.4121 19.7383 66.5527 20.1777C66.6934 20.6113 66.7637 21.1416 66.7637 21.7686V28H65.1289V21.751C65.1289 21.2529 65.0557 20.8545 64.9092 20.5557C64.7627 20.251 64.5488 20.0312 64.2676 19.8965C63.9863 19.7559 63.6406 19.6855 63.2305 19.6855C62.8262 19.6855 62.457 19.7705 62.123 19.9404C61.7949 20.1104 61.5107 20.3447 61.2705 20.6436C61.0361 20.9424 60.8516 21.2852 60.7168 21.6719C60.5879 22.0527 60.5234 22.457 60.5234 22.8848ZM68.7676 23.3506V23.1484C68.7676 22.4629 68.8672 21.8271 69.0664 21.2412C69.2656 20.6494 69.5527 20.1367 69.9277 19.7031C70.3027 19.2637 70.7568 18.9238 71.29 18.6836C71.8232 18.4375 72.4209 18.3145 73.083 18.3145C73.751 18.3145 74.3516 18.4375 74.8848 18.6836C75.4238 18.9238 75.8809 19.2637 76.2559 19.7031C76.6367 20.1367 76.9268 20.6494 77.126 21.2412C77.3252 21.8271 77.4248 22.4629 77.4248 23.1484V23.3506C77.4248 24.0361 77.3252 24.6719 77.126 25.2578C76.9268 25.8438 76.6367 26.3564 76.2559 26.7959C75.8809 27.2295 75.4268 27.5693 74.8936 27.8154C74.3662 28.0557 73.7686 28.1758 73.1006 28.1758C72.4326 28.1758 71.832 28.0557 71.2988 27.8154C70.7656 27.5693 70.3086 27.2295 69.9277 26.7959C69.5527 26.3564 69.2656 25.8438 69.0664 25.2578C68.8672 24.6719 68.7676 24.0361 68.7676 23.3506ZM70.3936 23.1484V23.3506C70.3936 23.8252 70.4492 24.2734 70.5605 24.6953C70.6719 25.1113 70.8389 25.4805 71.0615 25.8027C71.29 26.125 71.5742 26.3799 71.9141 26.5674C72.2539 26.749 72.6494 26.8398 73.1006 26.8398C73.5459 26.8398 73.9355 26.749 74.2695 26.5674C74.6094 26.3799 74.8906 26.125 75.1133 25.8027C75.3359 25.4805 75.5029 25.1113 75.6143 24.6953C75.7314 24.2734 75.79 23.8252 75.79 23.3506V23.1484C75.79 22.6797 75.7314 22.2373 75.6143 21.8213C75.5029 21.3994 75.333 21.0273 75.1045 20.7051C74.8818 20.377 74.6006 20.1191 74.2607 19.9316C73.9268 19.7441 73.5342 19.6504 73.083 19.6504C72.6377 19.6504 72.2451 19.7441 71.9053 19.9316C71.5713 20.1191 71.29 20.377 71.0615 20.7051C70.8389 21.0273 70.6719 21.3994 70.5605 21.8213C70.4492 22.2373 70.3936 22.6797 70.3936 23.1484ZM81.0898 20.3184V31.6562H79.4551V18.4902H80.9492L81.0898 20.3184ZM87.4971 23.166V23.3506C87.4971 24.042 87.415 24.6836 87.251 25.2754C87.0869 25.8613 86.8467 26.3711 86.5303 26.8047C86.2197 27.2383 85.8359 27.5752 85.3789 27.8154C84.9219 28.0557 84.3975 28.1758 83.8057 28.1758C83.2021 28.1758 82.6689 28.0762 82.2061 27.877C81.7432 27.6777 81.3506 27.3877 81.0283 27.0068C80.7061 26.626 80.4482 26.1689 80.2549 25.6357C80.0674 25.1025 79.9385 24.502 79.8682 23.834V22.8496C79.9385 22.1465 80.0703 21.5166 80.2637 20.96C80.457 20.4033 80.7119 19.9287 81.0283 19.5361C81.3506 19.1377 81.7402 18.8359 82.1973 18.6309C82.6543 18.4199 83.1816 18.3145 83.7793 18.3145C84.377 18.3145 84.9072 18.4316 85.3701 18.666C85.833 18.8945 86.2227 19.2227 86.5391 19.6504C86.8555 20.0781 87.0928 20.5908 87.251 21.1885C87.415 21.7803 87.4971 22.4395 87.4971 23.166ZM85.8623 23.3506V23.166C85.8623 22.6914 85.8125 22.2461 85.7129 21.8301C85.6133 21.4082 85.458 21.0391 85.2471 20.7227C85.042 20.4004 84.7783 20.1484 84.4561 19.9668C84.1338 19.7793 83.75 19.6855 83.3047 19.6855C82.8945 19.6855 82.5371 19.7559 82.2324 19.8965C81.9336 20.0371 81.6787 20.2275 81.4678 20.4678C81.2568 20.7021 81.084 20.9717 80.9492 21.2764C80.8203 21.5752 80.7236 21.8857 80.6592 22.208V24.4844C80.7764 24.8945 80.9404 25.2812 81.1514 25.6445C81.3623 26.002 81.6436 26.292 81.9951 26.5146C82.3467 26.7314 82.7891 26.8398 83.3223 26.8398C83.7617 26.8398 84.1396 26.749 84.4561 26.5674C84.7783 26.3799 85.042 26.125 85.2471 25.8027C85.458 25.4805 85.6133 25.1113 85.7129 24.6953C85.8125 24.2734 85.8623 23.8252 85.8623 23.3506Z" fill="black"/>
<g clip-path="url(#clip0_7199_46)">
<path d="M34.1072 0.790192H23.4924V28.1744H30.1023V19.5611H34.1072C40.3175 19.5611 43.9228 15.6128 43.9228 10.1757C43.9228 4.73852 40.3175 0.790192 34.1072 0.790192ZM33.4212 13.7522H30.1023V6.59909H33.4212C35.825 6.59909 37.198 7.9155 37.198 10.1757C37.198 12.4367 35.825 13.7522 33.4212 13.7522Z" fill="black"/>
<path d="M12.2176 11.6923C10.1864 11.1194 8.8987 10.6911 8.26833 10.2906C7.7547 9.9476 7.43952 9.46001 7.43952 8.88801C7.43952 7.60033 8.46947 6.62784 10.7871 6.62784C12.9898 6.62784 14.1634 7.5716 14.1634 8.97331H20.8011C20.8011 3.85135 16.5098 0.446289 11.1014 0.446289C7.89747 0.446289 5.43617 1.13413 3.49029 2.79266C1.77339 4.25274 0.743434 6.34139 0.743434 8.94547C0.743434 11.2065 1.43037 12.8372 2.48907 13.9812C3.49029 15.0678 5.52147 16.3563 8.69756 17.2148C10.9882 17.8443 12.6189 18.3309 13.3625 18.8167C14.1347 19.3034 14.3358 19.7327 14.3358 20.3047C14.3358 21.5349 13.1056 22.3646 10.6434 22.3646C8.35364 22.3646 7.12433 21.5061 7.03903 20.0182H0.314209C0.314209 25.1976 4.54898 28.5156 10.6434 28.5156C16.5673 28.5156 21.0301 24.8528 21.0301 20.1888C21.0301 18.4719 20.7158 16.9849 19.4847 15.4683C18.3982 14.0962 16.2242 12.866 12.2176 11.6923Z" fill="black"/>
</g>
<defs>
<clipPath id="clip0_7199_46">
<rect width="44" height="28.7347" fill="white"/>
</clipPath>
</defs>
</svg>
