<svg width="85" height="23" fill="none" xmlns="http://www.w3.org/2000/svg"><path d="M31.677 4.704h-4.688a.645.645 0 0 0-.423.159.665.665 0 0 0-.22.4l-1.897 12.223a.401.401 0 0 0 .223.422.386.386 0 0 0 .164.036h2.238a.645.645 0 0 0 .423-.159.666.666 0 0 0 .22-.4l.512-3.297a.665.665 0 0 1 .22-.4.645.645 0 0 1 .423-.16h1.484c3.088 0 4.87-1.52 5.336-4.53.21-1.317.009-2.352-.598-3.077-.666-.796-1.848-1.217-3.417-1.217Zm.54 4.464c-.255 1.71-1.54 1.71-2.784 1.71h-.707l.496-3.194a.4.4 0 0 1 .132-.24.387.387 0 0 1 .254-.095h.325c.846 0 1.645 0 2.057.49.246.293.322.728.228 1.329Zm13.473-.055h-2.245a.387.387 0 0 0-.253.095.399.399 0 0 0-.133.24l-.099.639-.157-.232c-.486-.717-1.57-.957-2.651-.957-2.481 0-4.6 1.91-5.013 4.59-.214 1.337.09 2.616.837 3.507.684.82 1.663 1.161 2.827 1.161 2 0 3.108-1.307 3.108-1.307l-.1.634a.405.405 0 0 0 .088.32.393.393 0 0 0 .297.14h2.022a.645.645 0 0 0 .423-.158.665.665 0 0 0 .22-.401l1.214-7.813a.403.403 0 0 0-.088-.32.39.39 0 0 0-.297-.138Zm-3.129 4.442c-.217 1.304-1.234 2.18-2.533 2.18-.652 0-1.173-.213-1.507-.616-.332-.4-.458-.97-.352-1.603.202-1.293 1.237-2.197 2.515-2.197.638 0 1.156.215 1.497.621.342.411.478.984.38 1.615Zm15.086-4.442H55.39a.645.645 0 0 0-.54.29l-3.111 4.66-1.32-4.478a.665.665 0 0 0-.235-.341.646.646 0 0 0-.39-.131H47.58a.385.385 0 0 0-.319.166.4.4 0 0 0-.052.36l2.485 7.414-2.336 3.353a.4.4 0 0 0 .115.57.386.386 0 0 0 .203.057h2.254a.643.643 0 0 0 .535-.284l7.503-11.012a.402.402 0 0 0-.118-.567.386.386 0 0 0-.202-.057Z" fill="#253B80"/><path d="M65.116 4.704h-4.69a.645.645 0 0 0-.422.159.665.665 0 0 0-.22.4l-1.896 12.223a.402.402 0 0 0 .222.422.385.385 0 0 0 .163.036h2.406c.109 0 .214-.04.296-.111a.466.466 0 0 0 .154-.28l.538-3.465a.665.665 0 0 1 .22-.4.645.645 0 0 1 .423-.16h1.483c3.09 0 4.87-1.52 5.337-4.53.21-1.317.008-2.352-.599-3.077-.665-.796-1.846-1.217-3.415-1.217Zm.54 4.464c-.255 1.71-1.54 1.71-2.784 1.71h-.707l.497-3.194a.398.398 0 0 1 .132-.24.386.386 0 0 1 .254-.095h.324c.846 0 1.645 0 2.058.49.246.293.32.728.226 1.329Zm13.472-.055h-2.243a.385.385 0 0 0-.254.095.397.397 0 0 0-.132.24l-.099.638-.158-.23c-.486-.718-1.569-.958-2.65-.958-2.481 0-4.6 1.91-5.012 4.59-.214 1.337.09 2.616.836 3.507.685.82 1.663 1.161 2.827 1.161 2 0 3.108-1.307 3.108-1.307l-.1.634a.403.403 0 0 0 .222.424.386.386 0 0 0 .164.037h2.022a.645.645 0 0 0 .423-.16.665.665 0 0 0 .22-.4l1.214-7.813a.405.405 0 0 0-.09-.32.393.393 0 0 0-.298-.138ZM76 13.555c-.215 1.304-1.234 2.18-2.533 2.18-.65 0-1.173-.213-1.507-.616-.332-.4-.457-.97-.353-1.603.204-1.293 1.238-2.197 2.516-2.197.638 0 1.156.215 1.497.621.344.411.48.984.38 1.615Zm5.776-8.516L79.85 17.486a.402.402 0 0 0 .222.422.385.385 0 0 0 .163.036h1.934a.654.654 0 0 0 .644-.56l1.898-12.222a.404.404 0 0 0-.09-.32.391.391 0 0 0-.296-.139H82.16a.388.388 0 0 0-.253.096.4.4 0 0 0-.132.24Z" fill="#179BD7"/><path d="m4.98 20.32.36-2.316-.8-.019H.728L3.377.9a.221.221 0 0 1 .074-.134.214.214 0 0 1 .142-.052h6.43c2.134 0 3.607.451 4.376 1.343.36.418.59.855.702 1.336.116.504.118 1.107.004 1.843l-.008.053v.471l.36.208c.276.142.523.334.73.566.31.358.509.812.593 1.35.087.555.058 1.214-.084 1.96-.165.86-.43 1.607-.79 2.22a4.538 4.538 0 0 1-1.251 1.393 5.034 5.034 0 0 1-1.685.773c-.621.165-1.33.247-2.106.247h-.5c-.358 0-.706.131-.978.366a1.547 1.547 0 0 0-.51.926l-.038.208-.633 4.081-.03.15c-.007.047-.02.071-.039.087a.106.106 0 0 1-.066.024H4.98Z" fill="#253B80"/><path d="M15.799 5.344c-.02.124-.041.252-.066.383-.848 4.426-3.749 5.956-7.454 5.956H6.393a.921.921 0 0 0-.906.789L4.521 18.7l-.273 1.765a.499.499 0 0 0 .11.395.484.484 0 0 0 .366.172H8.07a.81.81 0 0 0 .795-.69l.033-.172.63-4.065.04-.223a.809.809 0 0 1 .796-.691h.5c3.242 0 5.78-1.339 6.521-5.211.31-1.618.15-2.968-.67-3.918a3.207 3.207 0 0 0-.916-.718Z" fill="#179BD7"/><path d="M14.912 4.984a6.596 6.596 0 0 0-.825-.186 10.308 10.308 0 0 0-1.663-.123h-5.04a.796.796 0 0 0-.522.196.82.82 0 0 0-.272.495L5.518 12.27l-.03.202a.935.935 0 0 1 .308-.565.907.907 0 0 1 .597-.224h1.886c3.705 0 6.606-1.53 7.454-5.956.026-.131.047-.259.066-.383a4.477 4.477 0 0 0-.887-.36Z" fill="#222D65"/><path d="M6.59 5.366a.818.818 0 0 1 .271-.495.794.794 0 0 1 .524-.196h5.04c.596 0 1.154.04 1.662.124.345.055.684.137 1.015.246.25.084.483.184.698.299.252-1.636-.002-2.75-.872-3.758C13.968.476 12.238 0 10.023 0h-6.43a.924.924 0 0 0-.908.79L.007 18.05a.571.571 0 0 0 .125.453.555.555 0 0 0 .42.197h3.97l.996-6.43L6.59 5.366Z" fill="#253B80"/></svg>