<svg width="89" height="32" fill="none" xmlns="http://www.w3.org/2000/svg"><path d="M45.266 27.139c0-.276.085-.507.255-.695.175-.193.427-.29.755-.29s.577.097.747.29a.977.977 0 0 1 .264.695c0 .27-.088.498-.264.685-.17.188-.419.281-.747.281s-.58-.093-.756-.28a.984.984 0 0 1-.254-.686Zm10.257-1.662a1.37 1.37 0 0 0-.159-.65c-.1-.205-.307-.39-.624-.554-.31-.17-.78-.316-1.406-.439a11.138 11.138 0 0 1-1.433-.395 4.346 4.346 0 0 1-1.08-.554 2.322 2.322 0 0 1-.677-.765 2.132 2.132 0 0 1-.238-1.028c0-.375.082-.73.246-1.064.17-.334.408-.63.712-.887.31-.258.683-.46 1.117-.607.433-.146.916-.22 1.45-.22.761 0 1.412.135 1.95.405.54.27.953.63 1.24 1.08.287.446.43.941.43 1.486h-1.625c0-.264-.08-.518-.238-.765a1.752 1.752 0 0 0-.676-.623c-.293-.165-.654-.247-1.081-.247-.451 0-.818.07-1.099.211-.275.135-.477.308-.606.519a1.305 1.305 0 0 0-.097 1.143c.064.134.176.26.334.377.158.112.38.217.668.317.287.1.653.199 1.099.299.779.175 1.42.386 1.924.632.504.247.88.548 1.125.906.246.357.37.79.37 1.3a2.535 2.535 0 0 1-1.01 2.04c-.324.246-.71.439-1.161.58a5.181 5.181 0 0 1-1.503.202c-.838 0-1.547-.15-2.127-.448-.58-.3-1.02-.686-1.319-1.16a2.776 2.776 0 0 1-.448-1.504h1.635c.023.446.152.8.386 1.064.235.258.522.442.862.554.34.105.677.158 1.01.158.446 0 .818-.059 1.117-.176.304-.117.536-.278.694-.483a1.12 1.12 0 0 0 .238-.704ZM60.91 14.5V28h-1.626V14.5h1.626Zm-.387 8.385-.676-.027c.005-.65.102-1.25.29-1.801.187-.557.45-1.04.79-1.45a3.526 3.526 0 0 1 2.787-1.293c.469 0 .89.065 1.266.194.374.123.694.322.957.598.27.275.475.632.616 1.072.14.433.21.964.21 1.59V28H65.13v-6.249c0-.498-.073-.896-.22-1.195a1.351 1.351 0 0 0-.641-.66c-.282-.14-.627-.21-1.038-.21-.404 0-.773.084-1.107.254-.328.17-.612.405-.852.704a3.537 3.537 0 0 0-.554 1.028c-.13.38-.194.785-.194 1.213Zm8.245.466v-.203c0-.685.1-1.32.298-1.907.2-.592.487-1.104.862-1.538.375-.44.829-.78 1.362-1.02.533-.245 1.13-.369 1.793-.369.668 0 1.269.123 1.802.37.539.24.996.58 1.37 1.02.382.433.672.945.871 1.537.2.586.299 1.222.299 1.907v.203c0 .685-.1 1.32-.299 1.907-.2.586-.49 1.098-.87 1.538-.375.434-.83.773-1.362 1.02-.528.24-1.125.36-1.793.36-.668 0-1.269-.12-1.802-.36a4.077 4.077 0 0 1-1.371-1.02 4.645 4.645 0 0 1-.862-1.538 5.89 5.89 0 0 1-.298-1.907Zm1.626-.203v.203c0 .474.055.922.166 1.344.112.416.279.785.501 1.108.229.322.513.577.853.764.34.182.735.273 1.187.273.445 0 .835-.091 1.168-.273.34-.187.622-.442.844-.764.223-.323.39-.692.501-1.108.117-.422.176-.87.176-1.344v-.203c0-.468-.059-.91-.176-1.327a3.418 3.418 0 0 0-.51-1.116 2.423 2.423 0 0 0-.843-.773c-.334-.188-.727-.282-1.178-.282-.445 0-.838.094-1.178.282a2.53 2.53 0 0 0-.844.773c-.222.322-.39.694-.5 1.116a5.116 5.116 0 0 0-.167 1.327Zm10.696-2.83v11.338h-1.635V18.49h1.494l.14 1.828Zm6.407 2.848v.185c0 .691-.082 1.333-.246 1.924a4.733 4.733 0 0 1-.72 1.53 3.28 3.28 0 0 1-1.152 1.01c-.457.24-.982.36-1.573.36-.604 0-1.137-.099-1.6-.298-.463-.2-.855-.49-1.178-.87a4.444 4.444 0 0 1-.773-1.371 7.934 7.934 0 0 1-.387-1.802v-.984c.07-.704.202-1.333.396-1.89a4.707 4.707 0 0 1 .764-1.424c.323-.398.712-.7 1.17-.905.456-.211.984-.317 1.581-.317.598 0 1.128.118 1.591.352.463.229.853.557 1.17.984.316.428.553.94.711 1.539a7.4 7.4 0 0 1 .246 1.977Zm-1.635.185v-.185c0-.475-.05-.92-.15-1.336a3.376 3.376 0 0 0-.465-1.107 2.219 2.219 0 0 0-.79-.756c-.323-.188-.707-.281-1.152-.281-.41 0-.768.07-1.073.21-.298.141-.553.331-.764.572a3.03 3.03 0 0 0-.519.808 4.64 4.64 0 0 0-.29.932v2.276c.117.41.281.797.492 1.16.211.358.493.648.844.87.352.217.794.326 1.327.326.44 0 .818-.091 1.134-.273.322-.187.586-.442.791-.764.211-.323.366-.692.466-1.108.1-.422.15-.87.15-1.344Z" fill="#000"/><g clip-path="url(#a)" fill="#000"><path d="M34.107.79H23.492v27.384h6.61v-8.613h4.005c6.21 0 9.816-3.948 9.816-9.385 0-5.437-3.605-9.386-9.816-9.386Zm-.686 12.962h-3.319V6.6h3.32c2.403 0 3.776 1.316 3.776 3.577 0 2.26-1.373 3.576-3.777 3.576ZM12.218 11.692c-2.032-.573-3.32-1-3.95-1.401-.513-.343-.828-.831-.828-1.403 0-1.288 1.03-2.26 3.347-2.26 2.203 0 3.376.944 3.376 2.345h6.638c0-5.122-4.291-8.527-9.7-8.527-3.204 0-5.665.688-7.61 2.347C1.772 4.253.742 6.34.742 8.945c0 2.261.687 3.892 1.746 5.036 1.001 1.087 3.032 2.375 6.209 3.234 2.29.63 3.92 1.116 4.665 1.602.772.486.973.916.973 1.488 0 1.23-1.23 2.06-3.693 2.06-2.29 0-3.519-.859-3.604-2.347H.314c0 5.18 4.235 8.498 10.33 8.498 5.923 0 10.386-3.663 10.386-8.327 0-1.717-.314-3.204-1.545-4.72-1.087-1.373-3.26-2.603-7.267-3.777Z"/></g><defs><clipPath id="a"><path fill="#fff" d="M0 0h44v28.735H0z"/></clipPath></defs></svg>